<svg width="100" height="100" stroke="#7871FE" viewBox="0 0 100 100" fill="none" xmlns="http://www.w3.org/2000/svg">
<g clip-path="url(#clip0_185_1364)">
<path d="M48.5547 0.292927C47.0508 0.820271 46.7383 1.36714 42.8711 9.55074L39.2188 17.3046L31.0938 18.5351C24.1211 19.5898 22.8321 19.8242 22.1094 20.2343C20.4493 21.2109 19.668 23.2421 20.2344 25.1562C20.5664 26.3281 20.6641 26.4257 29.5313 35.4492L32.5977 38.5742L31.2305 46.875C29.7266 55.9765 29.6875 56.6992 30.5469 58.0273C31.5821 59.5703 33.5743 60.3125 35.2149 59.7851C35.586 59.6484 39.0821 57.8125 42.9493 55.6835L50 51.7968L57.0508 55.6835C60.918 57.8125 64.4141 59.6484 64.7852 59.7851C66.4258 60.3125 68.418 59.5703 69.4532 58.0273C70.3125 56.6992 70.2735 55.9765 68.7696 46.875L67.4024 38.5742L70.4688 35.4492C79.336 26.4257 79.4336 26.3281 79.7657 25.1562C80.3321 23.2421 79.5508 21.2109 77.8907 20.2343C77.168 19.8242 75.879 19.5703 68.9063 18.5156L60.7813 17.2851L57.129 9.5312C54.0821 3.08589 53.3399 1.64058 52.7149 1.09371C51.5625 0.0390205 50.0586 -0.253948 48.5547 0.292927ZM50.5469 3.55465C50.6446 3.69136 52.4219 7.36324 54.4727 11.7187C56.5235 16.0546 58.379 19.7851 58.5938 20C58.9063 20.3125 60.4102 20.6054 67.5391 21.6796C72.2657 22.4023 76.2305 23.0468 76.3477 23.125C76.4649 23.2031 76.5625 23.5351 76.5625 23.8671C76.5625 24.375 75.7618 25.2734 70.4688 30.7031C67.1094 34.121 64.2579 37.1679 64.1407 37.4609C63.9649 37.8906 64.1797 39.5703 65.3711 46.8554C66.8946 56.0937 66.9336 56.6406 66.0743 56.6406C65.879 56.6406 62.3047 54.746 58.1055 52.4414C53.9258 50.1367 50.2735 48.2421 50.0196 48.2421C49.7657 48.2421 46.1719 50.0976 42.0508 52.3828C37.9102 54.6484 34.3165 56.5429 34.0625 56.6015C33.0469 56.7968 33.0665 56.3867 34.629 46.8554C35.8204 39.5898 36.0352 37.8906 35.8594 37.4609C35.7422 37.1679 32.8907 34.121 29.5118 30.664C23.3008 24.3164 22.9297 23.8671 23.5938 23.2031C23.75 23.0468 30.8985 21.875 38.5547 20.7812C40.293 20.5273 40.9961 20.332 41.3477 20.039C41.6016 19.8046 43.418 16.1914 45.5274 11.7187C47.5782 7.36324 49.336 3.69136 49.4532 3.55465C49.5704 3.43746 49.8047 3.32027 50 3.32027C50.1954 3.32027 50.4297 3.43746 50.5469 3.55465Z" fill="#7871FE"/>
<path d="M50.5469 3.55465C50.6446 3.69136 52.4219 7.36324 54.4727 11.7187C56.5235 16.0546 58.379 19.7851 58.5938 20C58.9063 20.3125 60.4102 20.6054 67.5391 21.6796C72.2657 22.4023 76.2305 23.0468 76.3477 23.125C76.4649 23.2031 76.5625 23.5351 76.5625 23.8671C76.5625 24.375 75.7618 25.2734 70.4688 30.7031C67.1094 34.121 64.2579 37.1679 64.1407 37.4609C63.9649 37.8906 64.1797 39.5703 65.3711 46.8554C66.8946 56.0937 66.9336 56.6406 66.0743 56.6406C65.879 56.6406 62.3047 54.746 58.1055 52.4414C53.9258 50.1367 50.2735 48.2421 50.0196 48.2421C49.7657 48.2421 46.1719 50.0976 42.0508 52.3828C37.9102 54.6484 34.3165 56.5429 34.0625 56.6015C33.0469 56.7968 33.0665 56.3867 34.629 46.8554C35.8204 39.5898 36.0352 37.8906 35.8594 37.4609C35.7422 37.1679 32.8907 34.121 29.5118 30.664C23.3008 24.3164 22.9297 23.8671 23.5938 23.2031C23.75 23.0468 30.8985 21.875 38.5547 20.7812C40.293 20.5273 40.9961 20.332 41.3477 20.039C41.6016 19.8046 43.418 16.1914 45.5274 11.7187C47.5782 7.36324 49.336 3.69136 49.4532 3.55465C49.5704 3.43746 49.8047 3.32027 50 3.32027C50.1954 3.32027 50.4297 3.43746 50.5469 3.55465Z" fill="#7871FE"/>
<path d="M15.1367 55.4491C14.8047 55.6444 14.3945 56.0155 14.2383 56.2694C14.0234 56.621 10.5078 64.0038 10.4492 64.1991C10.4492 64.2187 8.59375 64.5116 6.34766 64.8437C4.08203 65.1952 1.95313 65.6054 1.6211 65.7616C0.87891 66.1132 0.214848 67.0702 0.0585977 68.0468C-0.156246 69.3944 0.273441 70.039 3.53516 73.3398L6.6211 76.4843L5.95703 80.4687C5.58594 82.6757 5.27344 84.8241 5.27344 85.2538C5.27344 86.953 6.54297 88.2812 8.16406 88.2812C8.92578 88.2812 9.60938 87.9687 12.8125 86.2304C14.8828 85.0976 16.6211 84.1796 16.6797 84.1796C16.7578 84.1796 18.4961 85.0976 20.5469 86.2304C24.3945 88.3398 25.0586 88.5546 26.2109 88.1054C26.9141 87.8319 27.7148 86.9335 27.9687 86.1132C28.1445 85.4687 28.0859 84.7265 27.4609 80.9569L26.7187 76.5624L29.7266 73.4179C33.1445 69.8437 33.5742 69.1405 33.2227 67.7734C32.9688 66.8359 32.4219 66.1327 31.6406 65.7226C31.3672 65.5859 29.3164 65.1952 27.0508 64.8437C24.8047 64.4921 22.9297 64.1991 22.9102 64.1796C22.8906 64.1601 22.0703 62.4413 21.0938 60.371C20.1172 58.3202 19.1992 56.4062 19.0234 56.1523C18.3594 55.1171 16.2695 54.746 15.1367 55.4491ZM19.4727 64.746C20.0391 65.9374 20.6641 66.9921 20.8594 67.1093C21.0547 67.246 23.125 67.6366 25.4492 67.9882L29.668 68.6132L26.4453 71.9921C24.6875 73.8476 23.2422 75.5077 23.2422 75.6835C23.2422 75.8593 23.5547 77.8905 23.9453 80.1952C24.3359 82.5194 24.6094 84.4335 24.5508 84.4921C24.5117 84.5507 22.8516 83.6913 20.8789 82.5976C18.5938 81.328 17.0703 80.6054 16.6992 80.6054C16.3086 80.5859 14.8633 81.289 12.5195 82.578C10.5469 83.6718 8.86719 84.5702 8.78906 84.5702C8.71094 84.5702 8.94531 82.8319 9.29688 80.7226C10.293 74.8437 10.5273 75.703 6.79688 71.9335C5.0586 70.1952 3.67188 68.7304 3.73047 68.6913C3.76953 68.6327 5.64453 68.3202 7.91016 67.9882C10.2148 67.6366 12.207 67.2265 12.4609 67.0507C12.7344 66.8944 13.3008 65.996 13.7695 64.9804C14.2188 63.9843 15.0586 62.2069 15.625 61.0351L16.6406 58.8866L17.5586 60.7421C18.0469 61.7577 18.9258 63.5741 19.4727 64.746Z" fill="#7871FE"/>
<path d="M19.4727 64.746C20.0391 65.9374 20.6641 66.9921 20.8594 67.1093C21.0547 67.246 23.125 67.6366 25.4492 67.9882L29.668 68.6132L26.4453 71.9921C24.6875 73.8476 23.2422 75.5077 23.2422 75.6835C23.2422 75.8593 23.5547 77.8905 23.9453 80.1952C24.3359 82.5194 24.6094 84.4335 24.5508 84.4921C24.5117 84.5507 22.8516 83.6913 20.8789 82.5976C18.5938 81.328 17.0703 80.6054 16.6992 80.6054C16.3086 80.5859 14.8633 81.289 12.5195 82.578C10.5469 83.6718 8.86719 84.5702 8.78906 84.5702C8.71094 84.5702 8.94531 82.8319 9.29688 80.7226C10.293 74.8437 10.5273 75.703 6.79688 71.9335C5.0586 70.1952 3.67188 68.7304 3.73047 68.6913C3.76953 68.6327 5.64453 68.3202 7.91016 67.9882C10.2148 67.6366 12.207 67.2265 12.4609 67.0507C12.7344 66.8944 13.3008 65.996 13.7695 64.9804C14.2188 63.9843 15.0586 62.2069 15.625 61.0351L16.6406 58.8866L17.5586 60.7421C18.0469 61.7577 18.9258 63.5741 19.4727 64.746Z" fill="white"/>
<path d="M81.8945 55.3905C81.0742 55.8007 80.9765 55.957 78.9062 60.371C77.9296 62.4413 77.1093 64.1601 77.0898 64.1796C77.0702 64.1991 75.2538 64.4921 73.0468 64.8241C70.8398 65.1562 68.8085 65.5273 68.496 65.664C67.7734 65.9374 67.0507 66.8359 66.7773 67.7929C66.3867 69.0819 66.8749 69.8827 70.2734 73.4179L73.2617 76.5624L72.539 80.9765C71.9335 84.7069 71.8554 85.4882 72.0507 86.1132C72.2851 86.9335 73.0859 87.8319 73.789 88.1054C74.9413 88.5546 75.6054 88.3398 79.4531 86.2304C81.5234 85.0976 83.2617 84.1796 83.3398 84.1796C83.4179 84.1796 85.1562 85.0976 87.207 86.2304C90.4101 87.9687 91.0937 88.2812 91.8359 88.2812C93.4374 88.2812 94.7265 86.914 94.7265 85.2538C94.7265 84.8241 94.414 82.6757 94.0429 80.4687L93.3788 76.4843L96.4648 73.3398C99.7265 70.039 100.156 69.3944 99.9413 68.0468C99.7851 67.0702 99.121 66.1132 98.3788 65.7616C98.0468 65.5859 95.957 65.1757 93.7499 64.8437C91.5429 64.5116 89.6874 64.1796 89.6093 64.1015C89.5312 64.0234 88.6913 62.3241 87.7343 60.3515C86.7968 58.3593 85.8984 56.5429 85.7617 56.289C85.1562 55.1757 83.2421 54.7265 81.8945 55.3905ZM85.2929 62.9687C86.4062 65.332 87.207 66.7968 87.5195 67.0116C87.832 67.2655 89.2577 67.5585 92.0898 67.9882C94.3554 68.3202 96.2304 68.6327 96.2695 68.6718C96.3281 68.7304 94.9413 70.1952 93.2031 71.9335C89.4726 75.703 89.707 74.8437 90.7031 80.7226C91.0546 82.8319 91.289 84.5702 91.2499 84.5702C91.1913 84.5702 89.5117 83.6718 87.5195 82.578C85.0976 81.2499 83.6913 80.5859 83.3007 80.6054C82.9296 80.6054 81.3476 81.3671 79.121 82.5976C77.1484 83.6913 75.4882 84.5507 75.4492 84.4921C75.3906 84.4335 75.664 82.5194 76.0546 80.1952C76.4452 77.8905 76.7577 75.8593 76.7577 75.6835C76.7577 75.5077 75.3124 73.8476 73.5546 71.9921L70.332 68.6132L74.5507 67.9882C76.8749 67.6366 78.9452 67.246 79.1406 67.1093C79.4921 66.8944 79.7656 66.3671 82.1679 61.289C82.7734 60.0195 83.3398 59.0429 83.4179 59.121C83.496 59.1991 84.3554 60.9374 85.2929 62.9687Z" fill="#7871FE"/>
<path d="M85.2929 62.9687C86.4062 65.332 87.207 66.7968 87.5195 67.0116C87.832 67.2655 89.2577 67.5585 92.0898 67.9882C94.3554 68.3202 96.2304 68.6327 96.2695 68.6718C96.3281 68.7304 94.9413 70.1952 93.2031 71.9335C89.4726 75.703 89.707 74.8437 90.7031 80.7226C91.0546 82.8319 91.289 84.5702 91.2499 84.5702C91.1913 84.5702 89.5117 83.6718 87.5195 82.578C85.0976 81.2499 83.6913 80.5859 83.3007 80.6054C82.9296 80.6054 81.3476 81.3671 79.121 82.5976C77.1484 83.6913 75.4882 84.5507 75.4492 84.4921C75.3906 84.4335 75.664 82.5194 76.0546 80.1952C76.4452 77.8905 76.7577 75.8593 76.7577 75.6835C76.7577 75.5077 75.3124 73.8476 73.5546 71.9921L70.332 68.6132L74.5507 67.9882C76.8749 67.6366 78.9452 67.246 79.1406 67.1093C79.4921 66.8944 79.7656 66.3671 82.1679 61.289C82.7734 60.0195 83.3398 59.0429 83.4179 59.121C83.496 59.1991 84.3554 60.9374 85.2929 62.9687Z" fill="white"/>
<path d="M49.121 66.8164C48.1054 67.1094 47.5389 67.9297 45.6054 71.9727L43.7499 75.8789L39.6093 76.5234C37.0116 76.9141 35.2343 77.2852 34.8632 77.5C33.5936 78.2617 33.0468 79.9219 33.6132 81.3867C33.7304 81.6797 35.1757 83.3008 36.8358 84.9609C38.8671 87.0313 39.8436 88.1445 39.8436 88.4375C39.8436 88.6719 39.5311 90.7031 39.16 92.9492C38.4569 97.3047 38.4569 97.8711 39.2577 98.8867C39.746 99.5117 40.8007 100 41.6405 100C42.1093 100 43.3788 99.4141 46.0546 97.9492C48.1054 96.8164 49.9022 95.8984 50.0194 95.8984C50.1366 95.8984 51.8358 96.7773 53.7694 97.832C55.7225 98.9063 57.5585 99.8438 57.871 99.9219C58.7304 100.117 59.7069 99.8438 60.4296 99.1602C61.5624 98.0859 61.6014 97.5781 60.8397 92.9492C60.4686 90.7031 60.1561 88.6719 60.1561 88.4375C60.1561 88.1445 61.1327 87.0313 63.164 84.9609C64.8241 83.3008 66.2694 81.6797 66.3866 81.3867C66.7382 80.4492 66.6405 79.2188 66.1522 78.5156C65.41 77.4023 64.8046 77.1875 60.371 76.5039L56.2304 75.8789L54.3944 71.9727C53.3593 69.8438 52.3046 67.832 52.0116 67.5391C51.7186 67.2266 51.1718 66.8945 50.8007 66.7969C49.9999 66.582 49.9218 66.582 49.121 66.8164ZM51.953 74.6289C53.5546 78.0273 53.8866 78.5938 54.3944 78.8281C54.7069 78.9648 56.7186 79.3555 58.8671 79.668C60.996 79.9805 62.7929 80.293 62.8515 80.3711C62.91 80.4297 61.5429 81.9141 59.8046 83.6523C57.1288 86.3672 56.6405 86.9336 56.6405 87.4414C56.6405 87.7539 56.953 89.8633 57.3046 92.1094C57.6757 94.3359 57.9686 96.2109 57.9296 96.2305C57.8905 96.2695 56.1913 95.3711 54.16 94.2383C52.1093 93.1055 50.2538 92.1875 50.0194 92.1875C49.785 92.1875 47.91 93.1055 45.8593 94.2383C43.8085 95.3711 42.1093 96.2695 42.0702 96.25C42.0507 96.2109 42.3241 94.3359 42.6757 92.0898C43.0468 89.8242 43.3593 87.7344 43.3593 87.4219C43.3593 86.9336 42.8514 86.3281 40.1952 83.6523C38.4569 81.9141 37.0897 80.4297 37.1288 80.3711C37.1874 80.332 38.9843 80.0195 41.1327 79.6875C43.2616 79.3555 45.2929 78.9648 45.6054 78.8281C46.1132 78.5938 46.4452 78.0273 48.0272 74.6289C49.0429 72.4805 49.9218 70.7031 49.9999 70.7031C50.0585 70.7031 50.9374 72.4805 51.953 74.6289Z" fill="#7871FE"/>
<path d="M51.953 74.6289C53.5546 78.0273 53.8866 78.5938 54.3944 78.8281C54.7069 78.9648 56.7186 79.3555 58.8671 79.668C60.996 79.9805 62.7929 80.293 62.8515 80.3711C62.91 80.4297 61.5429 81.9141 59.8046 83.6523C57.1288 86.3672 56.6405 86.9336 56.6405 87.4414C56.6405 87.7539 56.953 89.8633 57.3046 92.1094C57.6757 94.3359 57.9686 96.2109 57.9296 96.2305C57.8905 96.2695 56.1913 95.3711 54.16 94.2383C52.1093 93.1055 50.2538 92.1875 50.0194 92.1875C49.785 92.1875 47.91 93.1055 45.8593 94.2383C43.8085 95.3711 42.1093 96.2695 42.0702 96.25C42.0507 96.2109 42.3241 94.3359 42.6757 92.0898C43.0468 89.8242 43.3593 87.7344 43.3593 87.4219C43.3593 86.9336 42.8514 86.3281 40.1952 83.6523C38.4569 81.9141 37.0897 80.4297 37.1288 80.3711C37.1874 80.332 38.9843 80.0195 41.1327 79.6875C43.2616 79.3555 45.2929 78.9648 45.6054 78.8281C46.1132 78.5938 46.4452 78.0273 48.0272 74.6289C49.0429 72.4805 49.9218 70.7031 49.9999 70.7031C50.0585 70.7031 50.9374 72.4805 51.953 74.6289Z" fill="#7871FE"/>
</g>
<defs>
<clipPath id="clip0_185_1364">
<rect width="100" height="100" fill="white"/>
</clipPath>
</defs>
</svg>
