<svg width="100" height="100" stroke="#7871FE" viewBox="0 0 100 100" fill="none" xmlns="http://www.w3.org/2000/svg">
<path d="M41.7774 0.449219C40.879 0.9375 40.0391 2.08984 40.0391 2.87109C40.0391 3.32031 40.0196 3.32031 37.2266 3.32031C35.6641 3.32031 34.1602 3.41797 33.8477 3.53516C32.9688 3.86719 32.0313 4.90234 31.7969 5.80078L31.6016 6.64062H23.8086C18.7891 6.64062 15.6641 6.71875 15 6.85547C12.5 7.38281 10.2735 9.14062 9.14067 11.4648L8.49614 12.793L8.43754 52.9297C8.39848 97.5586 8.28129 93.9648 9.74614 96.25C10.6641 97.6367 12.3829 99.0039 13.9258 99.5508C14.9024 99.8828 16.5235 99.9023 50 99.9023C83.4766 99.9023 85.0977 99.8828 86.0743 99.5508C88.3594 98.75 90.3711 96.6992 91.211 94.2773C91.6016 93.1836 91.6016 92.6562 91.6016 53.4375C91.6016 14.375 91.6016 13.6914 91.211 12.4609C90.3321 9.62891 87.9688 7.48047 85 6.85547C84.336 6.71875 81.211 6.64062 76.1914 6.64062H68.3985L68.2032 5.80078C67.9688 4.90234 67.0313 3.86719 66.1524 3.53516C65.8399 3.41797 64.336 3.32031 62.7735 3.32031C59.9805 3.32031 59.961 3.32031 59.961 2.87109C59.961 2.08984 59.1211 0.9375 58.2227 0.449219C57.3633 0 57.3243 0 50 0C42.6758 0 42.6368 0 41.7774 0.449219ZM56.7188 4.00391C56.875 4.84375 57.8711 6.01562 58.7305 6.36719C59.1602 6.5625 60.2539 6.64062 62.2071 6.64062H65.0391V8.30078V9.96094H50H34.961V8.30078V6.64062H37.793C39.7461 6.64062 40.8399 6.5625 41.2696 6.36719C42.129 6.01562 43.125 4.84375 43.2813 4.00391L43.3985 3.32031H50H56.6016L56.7188 4.00391ZM31.6407 10.293C31.6407 11.0547 32.4805 12.3242 33.2813 12.793L34.1211 13.2812H50H65.8789L66.7188 12.793C67.5196 12.3242 68.3594 11.0547 68.3594 10.293C68.3594 9.98047 68.9063 9.96094 75 9.96094H81.6407V49.4336V88.9062L81.0743 89.4727L80.5079 90.0391H50H19.4922L18.9258 89.4727L18.3594 88.9062V49.4336V9.96094H25C31.0938 9.96094 31.6407 9.98047 31.6407 10.293ZM15.0782 50.0391C15.1368 87.793 15.1563 89.7852 15.4883 90.4492C15.9571 91.3672 16.875 92.3047 17.8516 92.832L18.6524 93.2617H50H81.3477L82.1485 92.832C83.125 92.3047 84.043 91.3672 84.5118 90.4492C84.8438 89.7852 84.8633 87.793 84.9219 50.0391C84.9414 28.2227 85.0196 10.3516 85.0782 10.3516C85.8399 10.3516 87.7149 12.2852 88.0469 13.4375C88.3985 14.6094 88.3594 92.4023 88.0079 93.3789C87.6172 94.4727 86.8164 95.3906 85.7032 96.0156L84.668 96.582H50H15.3321L14.2969 96.0156C13.1836 95.3906 12.3829 94.4727 11.9922 93.3789C11.6407 92.4023 11.6016 14.6094 11.9532 13.457C12.2852 12.3047 14.1407 10.3516 14.8829 10.3516C14.9805 10.3516 15.0586 28.2227 15.0782 50.0391Z" fill="#7871FE"/>
<path d="M56.7188 4.00391C56.875 4.84375 57.8711 6.01562 58.7305 6.36719C59.1602 6.5625 60.2539 6.64062 62.2071 6.64062H65.0391V8.30078V9.96094H50H34.961V8.30078V6.64062H37.793C39.7461 6.64062 40.8399 6.5625 41.2696 6.36719C42.129 6.01562 43.125 4.84375 43.2813 4.00391L43.3985 3.32031H50H56.6016L56.7188 4.00391Z" fill="#7871FE"/>
<path d="M15.0782 50.0391C15.1368 87.793 15.1563 89.7852 15.4883 90.4492C15.9571 91.3672 16.875 92.3047 17.8516 92.832L18.6524 93.2617H50H81.3477L82.1485 92.832C83.125 92.3047 84.043 91.3672 84.5118 90.4492C84.8438 89.7852 84.8633 87.793 84.9219 50.0391C84.9414 28.2227 85.0196 10.3516 85.0782 10.3516C85.8399 10.3516 87.7149 12.2852 88.0469 13.4375C88.3985 14.6094 88.3594 92.4023 88.0079 93.3789C87.6172 94.4727 86.8164 95.3906 85.7032 96.0156L84.668 96.582H50H15.3321L14.2969 96.0156C13.1836 95.3906 12.3829 94.4727 11.9922 93.3789C11.6407 92.4023 11.6016 14.6094 11.9532 13.457C12.2852 12.3047 14.1407 10.3516 14.8829 10.3516C14.9805 10.3516 15.0586 28.2227 15.0782 50.0391Z" fill="#7871FE"/>
<path d="M46.9531 16.8751C39.7656 18.0469 33.75 22.9688 31.2695 29.6876C30.332 32.2462 30.1953 33.1837 30.1758 36.6212C30.1758 40.6251 30.5078 42.0899 32.1289 45.4102C38.125 57.7344 54.4141 60.4688 64.082 50.8008C65.8398 49.043 66.8945 47.5001 68.0664 45.0587C69.4922 42.0704 69.8242 40.5079 69.8242 36.6212C69.8242 32.6172 69.4922 31.1329 67.8711 27.8321C65.2344 22.4219 60.6055 18.711 54.6875 17.2071C52.5586 16.6797 49.082 16.5235 46.9531 16.8751ZM48.2422 22.6172V25.1368L47.168 25.3712C43.4375 26.211 40.1563 29.3555 38.9258 33.2422L38.3789 34.961H35.8789H33.3984L33.5156 34.1212C33.7109 32.9297 34.5313 30.3321 35.1172 29.1993C37.207 25.0391 41.3281 21.7188 45.8984 20.5274C48.418 19.8633 48.2422 19.7071 48.2422 22.6172ZM54.0234 20.5079C56.8555 21.2305 59.2773 22.5977 61.5039 24.6876C63.6523 26.7383 64.9414 28.8087 65.9375 31.836C66.4453 33.3594 66.4844 33.7501 66.4844 36.5235C66.5039 38.8672 66.4258 39.8438 66.1523 40.8204C65.625 42.6954 64.8242 44.3751 64.5313 44.2579C64.375 44.1993 63.457 43.6133 62.4609 42.9493C61.4648 42.2852 60.625 41.7383 60.6055 41.7188C60.6055 41.6993 60.8008 41.0352 61.0742 40.2344C61.6602 38.5157 61.7773 35.7618 61.3477 33.9844C60.3516 29.8633 56.7773 26.2501 52.832 25.3712L51.7578 25.1368V22.6172C51.7578 19.7266 51.582 19.8829 54.0234 20.5079ZM52.0508 28.6133C56.1523 29.6876 58.9063 33.8086 58.2031 37.8712C57.6563 41.0743 55.5859 43.5547 52.6172 44.5313C50.7031 45.1758 48.2422 45.0391 46.4648 44.1797C43.1641 42.5977 41.1914 38.8672 41.7969 35.3712C42.6563 30.4883 47.3438 27.4024 52.0508 28.6133ZM38.6719 39.3165C38.9063 40.5274 39.8047 42.5001 40.5469 43.4571L41.0547 44.1407L40.4102 44.8633C40.0586 45.2735 39.3164 46.1133 38.75 46.7383L37.7344 47.8712L36.9336 46.9337C35.4688 45.2149 33.9844 41.8165 33.5156 39.004L33.3789 38.2813H35.918H38.457L38.6719 39.3165ZM60.8789 45.8594L62.8711 47.1876L62.3047 47.8907C61.4844 48.8672 59.5313 50.4102 57.9883 51.2501C52.6367 54.1993 45.9961 53.9454 40.9766 50.6446L40.2344 50.1368L41.0156 49.2383C41.4453 48.7501 42.168 47.9102 42.6367 47.3829L43.4766 46.4258L44.9219 47.129C46.8359 48.0469 48.3789 48.3204 50.7422 48.1837C53.5938 48.0274 56.2305 46.9141 57.9102 45.1563C58.2422 44.8243 58.5938 44.5508 58.6914 44.5313C58.8086 44.5313 59.7852 45.1368 60.8789 45.8594Z" fill="#7871FE"/>
<path d="M54.0234 20.5079C56.8555 21.2305 59.2773 22.5977 61.5039 24.6876C63.6523 26.7383 64.9414 28.8087 65.9375 31.836C66.4453 33.3594 66.4844 33.7501 66.4844 36.5235C66.5039 38.8672 66.4258 39.8438 66.1523 40.8204C65.625 42.6954 64.8242 44.3751 64.5313 44.2579C64.375 44.1993 63.457 43.6133 62.4609 42.9493C61.4648 42.2852 60.625 41.7383 60.6055 41.7188C60.6055 41.6993 60.8008 41.0352 61.0742 40.2344C61.6602 38.5157 61.7773 35.7618 61.3477 33.9844C60.3516 29.8633 56.7773 26.2501 52.832 25.3712L51.7578 25.1368V22.6172C51.7578 19.7266 51.582 19.8829 54.0234 20.5079Z" fill="#7871FE"/>
<path d="M38.6719 39.3165C38.9063 40.5274 39.8047 42.5001 40.5469 43.4571L41.0547 44.1407L40.4102 44.8633C40.0586 45.2735 39.3164 46.1133 38.75 46.7383L37.7344 47.8712L36.9336 46.9337C35.4688 45.2149 33.9844 41.8165 33.5156 39.004L33.3789 38.2813H35.918H38.457L38.6719 39.3165Z" fill="#7871FE"/>
<path d="M23.9453 60.1564C23.2227 60.3907 22.2852 61.2501 21.9531 62.0509C21.7773 62.4806 21.6797 63.4767 21.6797 65.0392C21.6797 67.7149 21.9531 68.5548 23.0859 69.3751C23.6719 69.7853 23.9648 69.8243 26.3867 69.8829C29.4727 69.961 30.0977 69.7853 30.9766 68.6329C31.5234 67.9298 31.543 67.7931 31.6016 65.5665C31.6406 64.2774 31.6211 62.9298 31.543 62.5587C31.3867 61.6603 30.2148 60.4103 29.3359 60.1564C28.4766 59.922 24.7461 59.922 23.9453 60.1564ZM28.3203 64.9415V66.6017H26.6602H25V64.9415V63.2814H26.6602H28.3203V64.9415Z" fill="#7871FE"/>
<path d="M35.9375 60.2148C34.9024 60.7422 34.7266 62.0898 35.586 62.8906C35.9961 63.2617 36.25 63.2812 41.6211 63.2812C46.9922 63.2812 47.2266 63.2617 47.7344 62.8711C48.1055 62.5781 48.2422 62.2852 48.2422 61.8164C48.2422 60.0195 48.0078 59.9609 41.6602 59.9609C37.8321 59.9609 36.2891 60.0391 35.9375 60.2148Z" fill="#7871FE"/>
<path d="M53.5548 60.3711C52.0508 61.1133 51.8555 61.6016 51.7969 64.8438C51.7383 67.5391 51.7579 67.7148 52.1876 68.3594C52.4415 68.7305 52.9493 69.2383 53.3008 69.4727C53.9063 69.8828 54.1798 69.9219 56.6016 69.9219C58.9454 69.9219 59.2969 69.8828 60.0001 69.4922C61.2891 68.7695 61.6016 68.0078 61.6798 65.5273C61.836 61.0352 60.879 59.9805 56.6407 59.9609C54.7462 59.9609 54.2579 60.0195 53.5548 60.3711ZM58.3594 64.9805L58.418 66.6016H56.7383H55.0782V64.9414V63.2617L56.6993 63.3203L58.3008 63.3789L58.3594 64.9805Z" fill="#7871FE"/>
<path d="M65.6446 60.4688C64.8634 61.1133 64.8048 62.0898 65.5274 62.793L65.9962 63.2812H71.6798H77.3634L77.8321 62.793C78.5157 62.1289 78.4767 61.2695 77.754 60.5273L77.1876 59.9609H71.7188H66.2501L65.6446 60.4688Z" fill="#7871FE"/>
<path d="M35.9376 66.8555C34.922 67.3633 34.7267 68.7109 35.547 69.5312C35.8985 69.8828 36.211 69.9219 39.1603 69.9219C42.1095 69.9219 42.422 69.8828 42.7735 69.5312C43.5938 68.7109 43.3985 67.3633 42.3829 66.8555C41.7188 66.5234 36.6017 66.5234 35.9376 66.8555Z" fill="#7871FE"/>
<path d="M66.0938 66.7969C65.0196 67.2266 64.7267 68.6523 65.5274 69.4336C65.9962 69.9219 66.0548 69.9219 69.1993 69.9219C72.2852 69.9219 72.4024 69.9023 72.8126 69.4727C73.2618 68.9844 73.379 68.0078 73.047 67.3828C72.9493 67.1875 72.5782 66.9336 72.2462 66.8164C71.5235 66.5625 66.6993 66.543 66.0938 66.7969Z" fill="#7871FE"/>
<path d="M24.3165 73.4179C23.3985 73.6523 22.9102 73.9843 22.3243 74.746C21.797 75.4296 21.7774 75.5663 21.7188 77.9101C21.6798 79.3359 21.7384 80.664 21.8556 81.0742C22.129 81.9531 23.1642 82.9101 24.1602 83.1835C25.1173 83.457 28.2032 83.457 29.1407 83.2031C30.0782 82.9296 31.0352 82.1288 31.3673 81.3085C31.6993 80.5468 31.7384 76.2695 31.4259 75.4492C31.172 74.746 30.5274 74.082 29.7852 73.6718C29.1212 73.3398 25.3321 73.1445 24.3165 73.4179ZM28.3204 78.4179V80.0781H26.6602H25.0001V78.4179V76.7577H26.6602H28.3204V78.4179Z" fill="#7871FE"/>
<path d="M36.0157 73.5157C34.5899 74.1407 34.7657 76.1134 36.2696 76.5626C36.7578 76.7188 38.7305 76.7579 42.1289 76.7188C47.2266 76.6602 47.2266 76.6602 47.7344 76.1915C48.4375 75.5274 48.4375 74.4727 47.7344 73.8087L47.2266 73.3399L41.9336 73.3009C37.7735 73.2618 36.4844 73.3009 36.0157 73.5157Z" fill="#7871FE"/>
<path d="M54.3164 73.418C53.4766 73.6329 52.7539 74.1798 52.207 75.0001C51.7969 75.586 51.7578 75.8594 51.7578 78.2618C51.7578 81.3282 51.9531 81.9727 53.1836 82.7735C53.9062 83.2423 54.1797 83.3008 56.1328 83.3594C58.7305 83.4571 59.8047 83.2032 60.6641 82.3438C61.5234 81.4844 61.7773 80.4102 61.6797 77.8126C61.6211 75.8594 61.5625 75.586 61.0938 74.8633C60.332 73.711 59.4727 73.379 57.0312 73.3204C55.8984 73.2813 54.6875 73.3399 54.3164 73.418ZM58.3594 78.3594L58.3008 79.9805L56.6992 80.0391L55.0781 80.0977V78.418V76.7579H56.7383H58.418L58.3594 78.3594Z" fill="#7871FE"/>
<path d="M66.2695 73.3789C65.6641 73.4961 65.0391 74.3359 65.0391 75.0195C65.0391 75.3125 65.2539 75.8203 65.5078 76.1133L65.9766 76.6602H71.6797H77.3828L77.8516 76.1133C78.457 75.4102 78.457 74.5898 77.8516 73.8867L77.3828 73.3398L72.0313 73.3203C69.1016 73.3008 66.5039 73.3203 66.2695 73.3789Z" fill="#7871FE"/>
<path d="M35.7812 80.2148C35.332 80.3906 34.9219 81.4453 35.0586 82.0508C35.3125 83.1641 36.0547 83.3984 39.1601 83.3984C42.1484 83.3984 42.6953 83.2422 43.125 82.3438C43.4375 81.7188 43.3008 80.9961 42.7734 80.4688C42.4219 80.1172 42.1289 80.0781 39.2187 80.0977C37.4609 80.0977 35.918 80.1563 35.7812 80.2148Z" fill="#7871FE"/>
<path d="M65.5274 80.5665C64.9024 81.1719 64.9024 82.0313 65.5078 82.754C65.9766 83.3008 66.0157 83.3008 68.5742 83.3594C71.5235 83.4376 72.3242 83.3399 72.8711 82.793C73.418 82.2461 73.3789 81.0547 72.793 80.5079C72.3633 80.0977 72.1485 80.0782 69.1602 80.0782C66.0547 80.0782 65.9961 80.0977 65.5274 80.5665Z" fill="#7871FE"/>
</svg>
