<svg width="30" height="30" viewBox="0 0 30 30" fill="none" xmlns="http://www.w3.org/2000/svg">
<path d="M29.3612 12.5001H15V17.9167H23.69C22.4712 21.5488 19.0425 24.1667 15 24.1667C9.93746 24.1667 5.83329 20.0626 5.83329 15.0001C5.83329 9.93758 9.93746 5.83342 15 5.83342C16.9995 5.83342 18.8479 6.4755 20.3545 7.56216L24.2166 3.70008C21.7045 1.64841 18.4962 0.416748 15 0.416748C6.94579 0.416748 0.416626 6.94592 0.416626 15.0001C0.416626 23.0542 6.94579 29.5834 15 29.5834C23.0541 29.5834 29.5833 23.0542 29.5833 15.0001C29.5833 14.1467 29.5025 13.313 29.3612 12.5001Z" fill="#F9E65C"/>
<path d="M15 17.9167H23.69C23.0329 19.8746 21.73 21.5329 20.0387 22.65L24.1512 26.3517C27.4629 23.6783 29.5833 19.5875 29.5833 15C29.5833 14.1467 29.5025 13.3129 29.3613 12.5H15V17.9167Z" fill="#78A2D2"/>
<path d="M20.0387 22.6501C18.5924 23.6055 16.8633 24.1667 14.9999 24.1667C11.2512 24.1667 8.03036 21.9155 6.60953 18.6921L2.00745 21.6209C4.42036 26.3459 9.33036 29.5834 14.9999 29.5834C18.4666 29.5834 21.6487 28.3717 24.1512 26.3517L20.0387 22.6501Z" fill="#60BE92"/>
<path d="M6.53211 11.4872C7.91044 8.168 11.1821 5.83342 15 5.83342C16.9996 5.83342 18.8479 6.4755 20.3546 7.56216L24.2167 3.70008C21.7046 1.64841 18.4963 0.416748 15 0.416748C9.26169 0.416748 4.29961 3.73258 1.91919 8.55175L6.53211 11.4872Z" fill="#F15B6C"/>
</svg>
