<svg width="100" height="100" viewBox="0 0 100 100" fill="none" xmlns="http://www.w3.org/2000/svg">
<path d="M16.7773 0.449219C16.25 0.742188 15.7617 1.19141 15.4883 1.67969L15.0391 2.44141V50V97.5586L15.4883 98.3203C15.7617 98.8086 16.25 99.2578 16.7773 99.5508L17.6562 100L43.8281 99.9609L70.0195 99.9023L70.8008 99.4727C71.2305 99.2383 74.4922 96.1328 78.0469 92.5391C83.4766 87.0703 84.5312 85.8984 84.7266 85.2344C84.9023 84.6289 84.9609 74.2188 84.9609 43.4375V2.44141L84.5117 1.67969C84.2383 1.19141 83.75 0.742188 83.2227 0.449219L82.3633 0H50H17.6367L16.7773 0.449219ZM81.6406 43.3594V83.3984H76.6602C71.9727 83.3984 71.6211 83.418 70.7812 83.8086C70.293 84.043 69.6875 84.5117 69.4336 84.8438C68.418 86.1719 68.3594 86.543 68.3594 91.7969V96.6797H43.3594H18.3594V50V26.6602V3.32031H50H81.6406V43.3594ZM79.1016 86.7773C79.1016 86.7969 77.4414 88.4961 75.3906 90.5273L71.6797 94.2383V90.7812C71.6797 87.9102 71.7383 87.2852 71.9922 87.0312C72.2461 86.7773 72.8711 86.7188 75.7031 86.7188C77.5781 86.7188 79.1016 86.7383 79.1016 86.7773Z" fill="#7871FE"/>
<path d="M81.6406 43.3594V83.3984H76.6602C71.9727 83.3984 71.6211 83.418 70.7812 83.8086C70.293 84.043 69.6875 84.5117 69.4336 84.8438C68.418 86.1719 68.3594 86.543 68.3594 91.7969V96.6797H43.3594H18.3594V50V26.6602V3.32031H50H81.6406V43.3594Z" fill="#7871FE"/>
<path d="M45.1172 6.9336C43.9649 7.28516 42.7149 8.35938 42.1875 9.47266C41.9336 10 41.7188 10.8984 41.6602 11.7969L41.543 13.2422L39.2774 13.3203C36.7578 13.418 35.9375 13.6914 34.7656 14.8828C33.3789 16.2695 33.3985 16.0156 33.3985 26.6211C33.3985 36.9141 33.3789 36.7383 34.4531 38.1445C34.7266 38.5156 35.4297 39.0625 35.9766 39.375L37.0117 39.9414H50H62.9883L64.0235 39.375C64.5703 39.0625 65.2735 38.5156 65.5469 38.1445C66.6407 36.6992 66.6211 36.9336 66.5625 26.4063C66.5039 15.6836 66.5625 16.1914 65.2149 14.8633C64.0625 13.6914 63.2227 13.418 60.7227 13.3203L58.4571 13.2422L58.3399 11.7969C58.2031 10.0195 57.6758 8.84766 56.5821 7.91016C55.293 6.81641 54.3946 6.64063 49.9219 6.66016C47.1485 6.66016 45.7422 6.73829 45.1172 6.9336ZM54.0039 10.1563C54.6094 10.3906 55.0781 11.3867 55.0781 12.5V13.2813H50H44.9219V12.5C44.9219 11.4453 45.3906 10.3906 45.9375 10.1563C46.543 9.92188 53.3594 9.92188 54.0039 10.1563ZM62.7735 17.168C63.2617 17.6367 63.2813 17.7344 63.2813 19.9219C63.2813 21.9531 63.2422 22.2656 62.8711 22.7344L62.4805 23.2422H50H37.5196L37.1289 22.7344C36.7578 22.2656 36.7188 21.9531 36.7188 19.9219C36.7188 17.8125 36.7578 17.6172 37.168 17.2461C37.4024 17.0313 37.7344 16.7969 37.8906 16.7383C38.0469 16.6797 43.6133 16.6406 50.2344 16.6602L62.2656 16.6992L62.7735 17.168ZM40.9766 26.7383L43.3594 26.7578V28.0664C43.3594 30.3125 44.7071 32.3633 46.6016 33.0273C47.7344 33.4375 52.5977 33.3984 53.5352 32.9883C55.4688 32.1094 56.6406 30.2734 56.6406 28.0664V26.7578L59.043 26.7383C60.3516 26.7383 61.836 26.6602 62.3633 26.582L63.2813 26.4258V31.0742V35.7031L62.6758 36.2109L62.0703 36.7188H50H37.9297L37.3242 36.2109L36.7188 35.7031V31.0742V26.4258L37.6563 26.582C38.1641 26.6602 39.6485 26.7383 40.9766 26.7383ZM53.3203 27.8125C53.3203 28.6719 53.2227 29.0039 52.8516 29.4336C52.3828 29.9805 52.3633 29.9805 50 29.9805C47.6367 29.9805 47.6172 29.9805 47.1485 29.4336C46.7774 29.0039 46.6797 28.6719 46.6797 27.8125V26.7578H50H53.3203V27.8125Z" fill="white"/>
<path d="M32.7734 45.1562C32.4219 45.2734 31.3086 46.5039 29.668 48.5938C26.2891 52.8516 26.6797 52.4609 26.0938 52.0898C24.8633 51.2695 23.4375 51.9727 23.4375 53.3984C23.4375 54.043 23.5938 54.2969 24.6875 55.3906C25.7422 56.4453 26.0352 56.6406 26.6211 56.6406C26.9922 56.6406 27.4805 56.4844 27.6953 56.2891C28.0664 55.9766 33.9453 48.6328 34.6289 47.6562C35.0781 46.9922 35.0391 46.2109 34.5312 45.625C33.9844 45.0391 33.457 44.9023 32.7734 45.1562Z" fill="white"/>
<path d="M38.9453 47.1484C38.5352 47.5 38.3984 47.7734 38.3984 48.3398C38.3984 48.9062 38.5352 49.1797 38.9453 49.5312L39.4727 50H57.5391H75.6055L76.0742 49.5117C76.8164 48.7891 76.7969 47.793 76.0547 47.1094L75.5664 46.6797H57.5195H39.4727L38.9453 47.1484Z" fill="white"/>
<path d="M38.9453 53.7891C38.5352 54.1406 38.3984 54.4141 38.3984 54.9805C38.3984 55.5469 38.5352 55.8203 38.9453 56.1719L39.4727 56.6406H50.8984H62.3242L62.793 56.1523C63.2813 55.6836 63.418 54.8828 63.1641 54.1992C62.832 53.3398 62.5586 53.3203 50.7031 53.3203H39.4727L38.9453 53.7891Z" fill="white"/>
<path d="M32.7539 60.0977C32.5586 60.1563 31.1719 61.7383 29.6484 63.6328C28.1445 65.5274 26.8359 67.1485 26.7773 67.2266C26.6992 67.3243 26.2891 67.2071 25.8789 66.9922C25.0391 66.5625 24.5508 66.6211 23.8867 67.2461C23.5742 67.5196 23.4375 67.8711 23.4375 68.3594C23.4375 68.9844 23.5938 69.2383 24.7852 70.3711C26.2109 71.7578 26.6992 71.9336 27.5195 71.3672C27.7734 71.1914 29.5508 69.0821 31.4648 66.6797C34.4531 62.9297 34.9609 62.2071 34.9609 61.6407C34.9609 61.1328 34.8047 60.8399 34.3555 60.4688C33.7695 59.9805 33.4766 59.9024 32.7539 60.0977Z" fill="white"/>
<path d="M38.7696 62.3437C38.1641 63.0468 38.2032 63.8866 38.8868 64.5507C39.2579 64.9413 39.5508 64.9413 57.1876 64.9999C70.6641 65.039 75.2344 64.9804 75.6641 64.8046C76.7383 64.3554 76.9532 62.8319 76.0157 62.1093C75.5469 61.7187 75.1758 61.7187 57.4219 61.7187H39.2969L38.7696 62.3437Z" fill="white"/>
<path d="M38.9453 68.8281C38.5352 69.1797 38.3984 69.4531 38.3984 70.0195C38.3984 70.5859 38.5352 70.8594 38.9453 71.2109L39.4727 71.6797H50.7031C62.5586 71.6797 62.832 71.6602 63.1641 70.8008C63.418 70.1172 63.2813 69.3164 62.793 68.8477L62.3242 68.3594H50.8984H39.4727L38.9453 68.8281Z" fill="white"/>
<path d="M32.5585 75.2149C32.3827 75.3321 30.9765 76.9728 29.453 78.8673C27.9296 80.7618 26.6601 82.3634 26.621 82.4024C26.6015 82.4415 26.4062 82.3438 26.2304 82.1681C25.4296 81.4649 23.8866 81.6798 23.5546 82.5196C23.1835 83.4962 23.4179 84.0821 24.6679 85.2931C25.996 86.6017 26.4648 86.8165 27.2069 86.5431C27.5194 86.4259 29.1405 84.5704 31.328 81.8165C34.9999 77.2657 35.2148 76.8751 34.8437 75.879C34.7069 75.5079 33.7694 75.0001 33.2616 75.0001C33.0663 75.0001 32.7538 75.0978 32.5585 75.2149Z" fill="white"/>
<path d="M38.8672 77.1484C37.9883 78.0273 38.3008 79.4531 39.4726 79.8633C40.3515 80.1758 74.6875 80.1758 75.5664 79.8633C76.289 79.6094 76.5625 79.1797 76.5625 78.2617C76.5625 77.832 76.4062 77.4609 76.1133 77.1875L75.664 76.7578H57.4609C39.5898 76.7578 39.2578 76.7578 38.8672 77.1484Z" fill="white"/>
<path d="M38.9062 83.7891C38.3398 84.3164 38.1835 85.0195 38.5156 85.6641C39.0038 86.7188 38.8671 86.7188 50.9179 86.7188H62.0702L62.6757 86.2109C63.457 85.5664 63.5156 84.5898 62.7929 83.8867L62.3241 83.3984H50.8202C39.5507 83.3984 39.3163 83.3984 38.9062 83.7891Z" fill="white"/>
</svg>
