<svg width="38" height="40" viewBox="0 0 38 40" fill="none" xmlns="http://www.w3.org/2000/svg">
<g clip-path="url(#clip0_201_1556)">
<mask id="mask0_201_1556" style="mask-type:luminance" maskUnits="userSpaceOnUse" x="0" y="0" width="38" height="40">
<path d="M38 0H0V40H38V0Z" fill="white"/>
</mask>
<g mask="url(#mask0_201_1556)">
<path d="M19 5C10.2567 5 3.16663 10.8928 3.16663 18.165C3.16663 22.841 6.09673 26.944 10.5121 29.2855L9.02011 35.1498C8.96636 35.3268 9.00669 35.5107 9.12765 35.638C9.21501 35.73 9.32926 35.7795 9.45023 35.7795C9.55104 35.7795 9.65185 35.7442 9.73249 35.6805L16.1504 31.1177C17.0711 31.2592 18.0256 31.3298 19 31.3298C27.7433 31.3298 34.8333 25.4372 34.8333 18.165C34.8333 10.8928 27.7433 5 19 5ZM11.0094 21.6525C11.0094 22.1688 10.7204 22.4872 10.25 22.4872C9.77953 22.4872 9.49055 22.1688 9.49055 21.6525V15.8659H7.89782C7.40049 15.8659 7.21904 15.4768 7.21904 15.1443C7.21904 14.7906 7.45426 14.4157 7.89782 14.4157H12.5954C13.0389 14.4157 13.2742 14.7906 13.2742 15.1443C13.2742 15.498 13.0994 15.8659 12.5954 15.8659H11.0027V21.6525H11.0094ZM18.3346 22.4872C17.9516 22.4872 17.7097 22.3033 17.5954 21.9355L17.266 20.846H14.1008L13.7647 21.9213C13.6438 22.3103 13.4153 22.4872 13.0389 22.4872C12.6223 22.4872 12.293 22.1618 12.293 21.7515C12.293 21.5888 12.34 21.4615 12.3602 21.4048L14.5578 15.2787C14.7123 14.826 15.0954 14.352 15.6868 14.352C16.2043 14.352 16.6142 14.6916 16.8158 15.2787L18.9461 21.3978C19.0134 21.5888 19.0335 21.7445 19.0335 21.8082C19.0335 22.1972 18.7311 22.4943 18.3413 22.4943L18.3346 22.4872ZM24.1545 21.702C24.1479 22.0415 23.8857 22.3953 23.4287 22.3953H20.6061C20.1088 22.3953 19.8132 22.0628 19.8132 21.511V15.1726C19.8132 14.6562 20.1021 14.3378 20.5725 14.3378C21.0429 14.3378 21.3319 14.6562 21.3319 15.1726V20.945H23.4287C23.6572 20.945 23.8454 21.0228 23.973 21.1643C24.1008 21.3058 24.1613 21.4968 24.1545 21.695V21.702ZM30.4582 21.8647C30.3977 22.4448 29.8668 22.4872 29.7057 22.4872C29.6653 22.4872 29.6249 22.4872 29.5847 22.4872C29.3024 22.459 29.1479 22.275 28.8521 21.8577L26.8628 18.9997L26.3184 19.5868V21.7303C26.3184 22.1618 25.9959 22.4943 25.5591 22.4943C25.1088 22.4943 24.7997 22.1902 24.7997 21.7303V15.1231C24.7997 14.6703 25.1156 14.3378 25.5591 14.3378C26.0027 14.3378 26.3184 14.6562 26.3184 15.1231V17.6768L28.9865 14.7481C29.1075 14.6208 29.3024 14.4581 29.5914 14.4581C29.9543 14.4652 30.324 14.7269 30.3171 15.1938C30.3171 15.4131 30.1895 15.5546 29.9476 15.8446C29.8938 15.9083 29.8266 15.979 29.7593 16.0639L27.9382 18.0022L30.0953 20.9733C30.3172 21.2775 30.5054 21.5322 30.465 21.8577L30.4582 21.8647Z" fill="#111111"/>
<path d="M15.6666 15.8022L14.5242 19.4312H16.836L15.6935 15.8022C15.6935 15.8022 15.6666 15.788 15.6666 15.8022Z" fill="#111111"/>
</g>
</g>
<defs>
<clipPath id="clip0_201_1556">
<rect width="38" height="40" fill="white"/>
</clipPath>
</defs>
</svg>
