<svg width="574" height="575" viewBox="0 0 574 575" fill="none" xmlns="http://www.w3.org/2000/svg">
<rect x="133" y="10" width="307" height="422" rx="153.5" stroke="#7871FE" stroke-width="20"/>
<line x1="286" y1="194.003" x2="286" y2="20" stroke="#7871FE" stroke-width="20"/>
<line x1="286" y1="194.003" x2="286" y2="20" stroke="#7871FE" stroke-width="20"/>
<line x1="346" y1="194.003" x2="346" y2="20" stroke="#7871FE" stroke-width="20"/>
<line x1="226" y1="194.003" x2="226" y2="20" stroke="#7871FE" stroke-width="20"/>
<path d="M568.734 343C543.078 475.194 426.695 575 287 575C147.305 575 30.9224 475.194 5.26562 343H94.0791C120.06 424.786 196.61 484.044 287 484.044C377.39 484.044 453.94 424.786 479.921 343H568.734Z" fill="#7871FE"/>
<path d="M42.3086 194C65.6743 194 84.6159 212.942 84.6162 236.308V281.66C84.6162 292.319 85.4414 302.786 87.0293 313H486.971C488.559 302.786 489.384 292.319 489.384 281.66V236.309C489.384 212.942 508.326 194 531.692 194C555.058 194 574 212.943 574 236.309V288C574 296.423 573.636 304.761 572.925 313H486.971H87.0293H1.0752C0.364259 304.761 5.2601e-06 296.423 0 288V236.309C0 212.942 18.9425 194 42.3086 194Z" fill="#424242"/>
</svg>
