<svg width="26" height="31" viewBox="0 0 26 31" fill="none" xmlns="http://www.w3.org/2000/svg">
<path d="M18.6123 30.4887L9.39633 15.9807H15.1923L24.6603 30.4887H18.6123ZM12.7443 26.9247C10.2963 26.9247 8.13632 26.3727 6.26432 25.2687C4.39232 24.1647 2.91632 22.6407 1.83632 20.6967C0.780324 18.7287 0.252324 16.4607 0.252324 13.8927C0.252324 11.3247 0.780324 9.06867 1.83632 7.12467C2.91632 5.15668 4.39232 3.62068 6.26432 2.51668C8.13632 1.41268 10.2963 0.860675 12.7443 0.860675C15.2163 0.860675 17.3883 1.41268 19.2603 2.51668C21.1563 3.62068 22.6203 5.15668 23.6523 7.12467C24.7083 9.06867 25.2363 11.3247 25.2363 13.8927C25.2363 16.4607 24.7083 18.7287 23.6523 20.6967C22.6203 22.6407 21.1563 24.1647 19.2603 25.2687C17.3883 26.3727 15.2163 26.9247 12.7443 26.9247ZM12.7443 22.3887C14.2563 22.3887 15.5643 22.0407 16.6683 21.3447C17.7723 20.6487 18.6243 19.6767 19.2243 18.4287C19.8243 17.1567 20.1243 15.6447 20.1243 13.8927C20.1243 12.1407 19.8243 10.6407 19.2243 9.39267C18.6243 8.12068 17.7723 7.13668 16.6683 6.44067C15.5643 5.74467 14.2563 5.39667 12.7443 5.39667C11.2563 5.39667 9.96032 5.74467 8.85632 6.44067C7.77632 7.13668 6.92432 8.12068 6.30032 9.39267C5.70032 10.6407 5.40032 12.1407 5.40032 13.8927C5.40032 15.6447 5.70032 17.1567 6.30032 18.4287C6.92432 19.6767 7.77632 20.6487 8.85632 21.3447C9.96032 22.0407 11.2563 22.3887 12.7443 22.3887Z" fill="#C3C3C3"/>
</svg>
