<svg width="1052" height="277" viewBox="0 0 1052 277" fill="none" xmlns="http://www.w3.org/2000/svg">
<path d="M988.447 272.384L907.671 168.691L980.182 83.0303H1039.92L946.369 190.106V149.905L1051.57 272.384H988.447ZM864.465 272.384V1.87854H915.185V272.384H864.465Z" fill="#7871FE"/>
<path d="M786.845 272.384V1.87854H837.564V272.384H786.845Z" fill="#7871FE"/>
<path d="M653.118 276.893C637.338 276.893 624.314 274.388 614.045 269.379C603.776 264.119 596.136 257.231 591.127 248.715C586.368 239.949 583.989 230.306 583.989 219.786C583.989 208.264 586.869 198.121 592.63 189.354C598.641 180.588 607.533 173.7 619.305 168.69C631.327 163.681 646.355 161.176 664.389 161.176H711.352C711.352 151.909 710.1 144.27 707.595 138.259C705.09 131.997 701.208 127.363 695.948 124.358C690.688 121.352 683.675 119.849 674.909 119.849C665.391 119.849 657.251 121.978 650.488 126.236C643.976 130.244 639.968 136.505 638.466 145.021H589.249C590.501 131.496 594.884 119.849 602.398 110.081C610.163 100.062 620.307 92.2976 632.83 86.7873C645.604 81.277 659.755 78.5219 675.284 78.5219C693.068 78.5219 708.472 81.5275 721.496 87.5387C734.52 93.5499 744.539 102.191 751.552 113.462C758.565 124.733 762.072 138.634 762.072 155.165V272.384H719.242L713.606 243.455C710.851 248.465 707.595 252.973 703.838 256.981C700.081 260.988 695.698 264.495 690.688 267.5C685.679 270.506 680.043 272.76 673.782 274.263C667.52 276.016 660.632 276.893 653.118 276.893ZM665.141 237.82C671.653 237.82 677.413 236.693 682.423 234.438C687.683 231.934 692.191 228.678 695.948 224.67C699.705 220.412 702.586 215.653 704.589 210.393C706.843 204.883 708.346 198.997 709.098 192.735V192.36H670.4C662.636 192.36 656.249 193.362 651.239 195.365C646.481 197.119 642.974 199.749 640.72 203.255C638.466 206.762 637.338 210.769 637.338 215.278C637.338 220.287 638.466 224.42 640.72 227.676C642.974 230.932 646.23 233.437 650.488 235.19C654.746 236.943 659.63 237.82 665.141 237.82Z" fill="#7871FE"/>
<path d="M534.54 272.384C521.265 272.384 509.618 270.381 499.599 266.373C489.831 262.115 482.192 255.227 476.682 245.71C471.171 235.941 468.416 222.666 468.416 205.885V125.485L468.416 83.0303L468.416 31.559H519.136V83.0303H569.104V125.485H519.136V206.636C519.136 215.152 521.014 221.038 524.772 224.294C528.529 227.551 534.915 229.179 543.932 229.179H568.729V272.384H534.54Z" fill="#7871FE"/>
<path d="M378.576 272.384L297.8 168.691L370.311 83.0303H430.047L336.497 190.106V149.905L441.694 272.384H378.576ZM254.594 272.384V1.87854H305.314V272.384H254.594Z" fill="#424242"/>
<path d="M175.165 272.384V83.0303H225.885V272.384H175.165ZM200.713 57.1068C191.696 57.1068 184.182 54.4769 178.171 49.217C172.41 43.7067 169.53 36.8189 169.53 28.5534C169.53 20.2879 172.41 13.5253 178.171 8.26547C184.182 2.75516 191.696 0 200.713 0C209.981 0 217.495 2.75516 223.255 8.26547C229.267 13.5253 232.272 20.2879 232.272 28.5534C232.272 36.8189 229.267 43.7067 223.255 49.217C217.495 54.4769 209.981 57.1068 200.713 57.1068Z" fill="#424242"/>
<path d="M0 272.384V231.809L95.4285 125.109H1.12711V83.0303H153.662V123.982L57.4825 230.306H155.541V272.384H0Z" fill="#424242"/>
</svg>
